<svg width="1211" height="1155" viewBox="0 0 173 165" fill="none" xmlns="http://www.w3.org/2000/svg">
<path fill-rule="evenodd" clip-rule="evenodd" d="M16.52 31.5122L59.77 0H113.23L156.48 31.5122L173 82.5L156.48 133.488L113.23 165H59.77L16.52 133.488L0 82.5L16.52 31.5122ZM86.5 8.70974L66.4255 2.16864L106.574 2.16864L86.5 8.70974ZM83.001 9.84987L60.596 2.54939L46.749 21.6623L83.001 9.84987ZM47.733 23.6219L84.1507 11.7555L70.1098 31.2003L47.733 23.6219ZM43.9133 25.5764L20.5511 57.823L43.8162 50.348L43.9133 25.5764ZM43.8073 52.6281L20.1384 60.2329L34.6421 80.3186L43.7482 67.7078L43.8073 52.6281ZM45.9225 64.6967L45.9725 51.9324L57.9087 48.0973L45.9225 64.6967ZM43.7336 71.4255L35.9771 82.1674L43.6499 92.7932L43.7336 71.4255ZM45.8007 95.7719L45.9079 68.4144L61.3852 46.9803L86.3041 38.9739L112.711 47.9173L128.153 69.3027L128.366 96.3236L103.077 130.403L61.0585 116.902L45.8007 95.7719ZM43.6354 96.4708L34.6421 84.0161L20.342 103.82L43.5774 111.285L43.6354 96.4708ZM45.7372 111.979L45.7863 99.4494L57.582 115.785L45.7372 111.979ZM43.5685 113.56L19.5948 105.857L43.4695 138.811L43.5685 113.56ZM45.6246 140.691L45.7282 114.254L59.7231 118.75L84.7788 153.449L45.6246 140.691ZM116.245 49.1142L128.124 65.5644L128.026 53.1039L116.245 49.1142ZM128.007 50.8088L114.057 46.0843L104.664 33.075L127.809 25.6384L128.007 50.8088ZM130.194 53.8382L130.31 68.5923L139.5 81.3196L153.929 61.8766L130.194 53.8382ZM153.662 59.4972L130.176 51.5431L129.981 26.8106L153.662 59.4972ZM110.523 44.8873L89.7723 37.8595L102.496 33.7713L110.523 44.8873ZM86.3218 36.6909L101.162 31.9229L86.7099 11.9088L72.2551 31.9269L86.3218 36.6909ZM68.7817 33.0395L60.0498 45.1321L45.9815 49.6523L46.0767 25.3499L68.7817 33.0395ZM70.927 33.7661L82.8536 37.8053L63.5263 44.0151L70.927 33.7661ZM105.254 131.102L128.395 99.9179L128.7 138.635L105.254 131.102ZM130.534 97.0344L130.85 136.99L154.058 104.955L153.953 105.032L139.477 84.9842L130.534 97.0344ZM130.34 72.3306L130.506 93.4401L138.147 83.1431L130.34 72.3306ZM89.3983 11.9344L126.126 23.9019L103.329 31.2266L89.3983 11.9344ZM18.6824 61.9141V102.421L33.3071 82.1674L18.6824 61.9141ZM88.8135 153.256L127.691 140.588L103.889 132.941L88.8135 153.256ZM101.713 132.241L86.7218 152.442L63.1996 119.867L101.713 132.241ZM140.83 83.1607L154.317 101.839V64.9852L140.83 83.1607ZM43.25 22.8024L55.6567 5.67758L23.1756 29.3435L43.25 22.8024ZM23.1756 135.656L55.6567 159.322L43.25 142.198L23.1756 135.656ZM41.0875 139.213L18.6824 108.287V131.912L41.0875 139.213ZM16.5199 105.302V126.47L4.11332 88.1776L16.5199 105.302ZM16.5199 63.3872L2.67299 82.5L16.5199 101.613V63.3872ZM16.5199 59.6977L4.11332 76.8224L16.5199 38.5303V59.6977ZM18.6824 56.7128V33.0878L41.0875 25.7873L18.6824 56.7128ZM46.749 143.338L60.596 162.451L83.001 155.15L46.749 143.338ZM86.5 156.29L66.4255 162.831H106.574L86.5 156.29ZM117.343 159.323L149.824 135.656L129.75 142.198L117.343 159.323ZM126.251 143.338L89.9989 155.15L112.404 162.451L126.251 143.338ZM131.912 139.213L154.317 131.912V108.287L131.912 139.213ZM156.48 105.302V126.47L168.887 88.1774L156.48 105.302ZM168.887 76.8226L156.48 38.5301V59.6977L168.887 76.8226ZM156.48 101.613L170.327 82.5L156.48 63.3872V101.613ZM154.317 56.7128V33.0878L131.912 25.7873L154.317 56.7128ZM129.75 22.8024L149.824 29.3436L117.343 5.67744L129.75 22.8024ZM126.251 21.6623L89.999 9.84987L112.404 2.54939L126.251 21.6623Z" fill="url(#paint0_radial_2_18)"/>
<defs>
<radialGradient id="paint0_radial_2_18" cx="0" cy="0" r="1" gradientUnits="userSpaceOnUse" gradientTransform="translate(88.8724 81.6253) rotate(57.2626) scale(97.9701 102.891)">
<stop stop-color="#E5F781" stop-opacity="0.96"/>
<stop offset="1" stop-color="#F4FFBB" stop-opacity="0.35"/>
</radialGradient>
</defs>
</svg>
